<svg width="385" height="512" viewBox="0 0 385 512" fill="none" xmlns="http://www.w3.org/2000/svg">
<g clip-path="url(#clip0_1_3211)">
<path d="M376.354 24.1063C375.755 23.9616 291.664 0.0373145 193.325 0C193.036 0 192.752 0.0113074 192.463 0.0113074C192.173 0.0113074 191.891 0 191.602 0C93.2629 0.0373145 9.17298 23.9616 8.57369 24.1063C3.56676 25.5242 0.106689 30.1015 0.106689 35.3165V303.821L0.3204 305.988C0.551071 307.753 26.4643 440.233 187.762 511.026C189.249 511.673 190.848 512 192.448 512C192.454 512 192.458 511.995 192.464 511.995C192.47 511.995 192.474 512 192.48 512C194.08 512 195.679 511.673 197.166 511.026C358.464 440.233 384.377 307.753 384.608 305.988L384.821 303.821V35.3165C384.82 30.1015 381.36 25.5242 376.354 24.1063Z" fill="white"/>
<path d="M374.488 30.599C374.237 30.5346 289.386 6.92131 192.464 6.76074C95.5414 6.92131 10.6916 30.5357 10.4406 30.599C8.31708 31.1825 6.86182 33.1025 6.86182 35.3063V303.821L6.9421 304.736C7.03821 305.464 32.0107 435.312 190.495 504.844C191.121 505.116 191.795 505.255 192.464 505.255C193.133 505.255 193.806 505.116 194.433 504.844C352.918 435.312 377.89 305.464 377.986 304.736L378.066 303.821V35.3063C378.065 33.1025 376.61 31.1825 374.488 30.599Z" fill="black"/>
<path d="M192.464 16.5598C152.553 16.6072 114.738 20.7265 84.1445 25.487V420.331C109.797 447.057 144.803 473.784 192.464 495.003C240.125 473.784 275.131 447.057 300.783 420.331V25.4858C270.189 20.7254 232.375 16.6072 192.464 16.5598Z" fill="white"/>
<path d="M139.471 382.066C124.537 367.144 117.676 349.392 117.686 331.613C117.686 310.411 127.372 289.22 144.241 272.362C157.469 259.14 173.322 250.346 189.784 247.143L166.769 224.138C160.608 230.294 136.844 254.004 127.986 262.862H128.093L124.478 266.436L123.205 267.671C122.359 268.388 121.066 269.051 119.59 269.029C117.921 269.137 116.162 268.232 115.033 266.943L102.421 254.193C101.169 253.096 100.207 251.384 100.313 249.668C100.286 248.181 100.966 246.886 101.822 245.887L189.196 158.549L169.952 139.332C163.802 145.478 140.027 169.199 131.164 178.067H131.25L127.656 181.624L126.372 182.87C125.548 183.56 124.265 184.267 122.751 184.24C121.077 184.347 119.349 183.432 118.209 182.148L105.581 169.392C104.357 168.295 103.383 166.606 103.479 164.872C103.452 163.38 104.132 162.086 104.998 161.085L202.626 63.5058C204.626 61.4354 207.445 60.152 210.541 60.152C213.611 60.1362 216.356 61.3981 218.297 63.4199L283.262 128.39C283.979 129.245 284.647 130.54 284.621 132.016C284.727 133.674 283.835 135.433 282.562 136.563L281.947 137.172H281.921C281.551 137.515 281.049 138.018 280.444 138.611C279.208 139.835 277.566 141.467 275.924 143.109C272.641 146.377 269.377 149.639 269.367 149.639L267.88 151.104L213.029 96.2374L188.099 121.188L280.074 213.173C280.802 214.035 281.471 215.34 281.443 216.804C281.551 218.467 280.658 220.216 279.373 221.361L264.729 235.915L209.863 181.049L184.922 205.978L230.208 251.264C238.584 254.848 246.612 260.24 253.946 267.589C268.081 281.891 276.1 299.108 276.111 316.261C276.111 328.685 271.875 341.015 262.895 351.935L261.429 353.722L240.024 332.301L240.849 330.91C244.845 324.14 247.176 317.191 247.165 310.323C247.155 302.113 243.929 293.881 235.799 285.731C227.054 277.007 217.538 273.498 207.841 273.477C193.143 273.451 177.867 281.863 165.828 293.93C153.762 305.96 145.359 321.251 145.386 335.955C145.397 345.652 148.917 355.172 157.629 363.895C165.015 371.271 173.226 374.411 181.629 374.421C191.192 374.421 201.082 370.25 209.854 363.013L211.314 361.826L232.397 382.91L230.745 384.381C217.277 396.33 201.606 402.459 185.961 402.459C169.455 402.462 153.044 395.641 139.471 382.066Z" fill="black"/>
<path d="M198.583 250.025L194.406 250.587C177.536 252.903 160.933 261.558 147.194 275.308C130.977 291.504 121.847 311.695 121.847 331.613C121.863 348.322 128.216 364.892 142.407 379.114C155.318 391.999 170.6 398.283 185.961 398.294C199.878 398.294 213.913 393.1 226.312 382.707L211.025 367.411C202.039 374.402 191.856 378.578 181.629 378.589C172.157 378.601 162.732 374.926 154.688 366.844C145.265 357.458 141.199 346.691 141.22 335.957C141.242 319.644 150.313 303.56 162.887 290.991C175.462 278.416 191.539 269.34 207.842 269.313C218.572 269.303 229.343 273.362 238.741 282.782C247.497 291.515 251.353 300.967 251.332 310.326C251.332 317.638 249.022 324.806 245.245 331.619L261.109 347.488C268.522 337.728 271.941 327.063 271.941 316.263C271.951 300.431 264.512 284.209 250.996 270.527C243.92 263.435 236.207 258.306 228.211 254.93L227.81 254.76L179.025 205.98L209.865 175.162L264.731 230.022L276.439 218.411C277.434 217.255 277.171 217.721 277.279 216.806C277.257 216.389 277.236 216.33 276.995 215.982L182.201 121.189L213.031 90.3496L267.902 145.231C271.079 142.06 278.385 134.758 279.626 133.604C280.61 132.475 280.353 132.93 280.455 132.015C280.434 131.598 280.423 131.539 280.172 131.169L215.325 66.3338C214.064 65.0504 212.491 64.3278 210.544 64.312C208.602 64.312 206.864 65.1092 205.601 66.4186L108.08 163.881C107.69 164.394 107.669 164.474 107.642 164.87C107.738 165.71 107.497 165.271 108.535 166.449L121.173 179.216C122.312 180.227 121.874 179.97 122.75 180.076C123.136 180.05 123.243 180.029 123.612 179.766L124.564 178.825L124.634 178.739L124.693 178.668L124.811 178.551C124.907 178.455 125.024 178.326 125.191 178.155C125.517 177.834 125.992 177.358 126.587 176.764C127.785 175.561 129.491 173.839 131.545 171.791C135.653 167.689 141.124 162.212 146.601 156.751C157.534 145.829 168.483 134.918 168.483 134.918L169.943 133.457L195.086 158.547L104.91 248.666C104.54 249.169 104.504 249.265 104.477 249.667C104.583 250.523 104.322 250.073 105.37 251.261L117.998 264.017C119.126 265.006 118.688 264.767 119.592 264.863C119.993 264.841 120.079 264.815 120.437 264.569L121.464 263.548L121.517 263.483L121.634 263.355C121.731 263.269 121.848 263.142 122.014 262.97C122.341 262.649 122.816 262.173 123.41 261.569C124.608 260.366 126.313 258.654 128.368 256.595C132.476 252.492 137.948 247.026 143.424 241.555C154.357 230.633 165.305 219.711 165.305 219.711L166.766 218.246L195.6 247.053L198.583 250.025Z" fill="#E53138"/>
</g>
<defs>
<clipPath id="clip0_1_3211">
<rect width="384.714" height="512" fill="white" transform="translate(0.106689)"/>
</clipPath>
</defs>
</svg>
