<svg width="292" height="512" viewBox="0 0 292 512" fill="none" xmlns="http://www.w3.org/2000/svg">
<path d="M157.816 511.616C148.13 510.362 138.61 505.995 132.957 500.214C128.819 495.982 126.797 492.555 125.363 487.344C124.597 484.559 124.503 482.889 124.292 468.312C124.065 452.616 124.045 452.307 123.158 450.882C122.285 449.478 121.265 448.865 118.967 448.363L117.869 448.123V469.303V490.483H109.08H100.292V445.143V399.803L110.778 399.816C116.546 399.824 123.062 399.994 125.259 400.194C134.557 401.042 139.399 404.126 141.259 410.385C142.056 413.069 142.431 423.072 141.906 427.637C141.674 429.654 141.104 432.188 140.639 433.27C139.018 437.036 135.006 439.908 130.64 440.425C127.255 440.826 127.645 441.412 131.651 441.946C135.589 442.472 138.75 444.459 140.234 447.342C141.686 450.164 141.855 451.927 141.965 465.395C142.072 478.515 142.088 478.741 143.111 481.792C144.426 485.716 146.08 488.289 149.064 491.051C153.552 495.206 158.848 496.962 167.102 497.031L172.194 497.074L172.195 504.307L172.197 511.541L169.741 511.797C166.581 512.128 161.123 512.045 157.816 511.616ZM122.018 435.772C124.118 434.974 124.311 433.844 124.18 423.118L124.061 413.314L122.94 412.351C122.082 411.614 121.355 411.387 119.844 411.387H117.869V423.771V436.155H119.441C120.305 436.155 121.465 435.983 122.018 435.772ZM70.6244 492.057C61.5527 490.802 56.8728 486.238 55.2975 477.109C54.8188 474.335 54.7429 468.555 54.8559 443.472C54.9806 415.818 55.0543 412.979 55.7043 410.81C58.4294 401.718 64.0804 398.092 75.525 398.095C87.5763 398.098 93.1577 401.759 95.7879 411.387C96.439 413.771 96.4972 416.538 96.4972 445.143C96.4972 473.748 96.439 476.514 95.7879 478.898C93.8169 486.113 90.3196 489.744 83.6736 491.475C80.7567 492.235 74.0653 492.533 70.6244 492.057ZM77.8842 478.137C78.4283 477.592 78.7211 476.538 78.9102 474.441C79.0558 472.828 79.1176 458.235 79.0477 442.012L78.9205 412.516L77.7997 411.552C76.3683 410.321 74.951 410.327 73.7092 411.569L72.7287 412.55V444.925C72.7287 476.768 72.7418 477.313 73.5276 478.099C74.5679 479.139 76.8618 479.159 77.8842 478.137ZM161.48 492.077C153.048 490.894 148.428 486.798 146.338 478.655C145.693 476.139 145.632 473.255 145.632 445.143C145.632 416.299 145.679 414.209 146.383 411.587C148.996 401.854 154.608 398.108 166.604 398.088C178.701 398.068 184.679 402.278 186.741 412.269C187.258 414.773 187.377 418.226 187.377 430.745V446.141H175.379H163.382L163.495 461.756L163.608 477.371L164.551 478.135C165.756 479.109 167.453 479.109 168.657 478.135C169.6 477.372 169.6 477.365 169.719 466.75L169.837 456.128H178.607H187.377V465.532C187.377 472.542 187.216 475.721 186.745 478.016C185.175 485.668 181.326 489.888 174.467 491.479C171.21 492.234 164.727 492.533 161.48 492.077ZM169.719 422.786C169.585 410.821 169.581 410.806 166.604 410.806C163.628 410.806 163.624 410.821 163.49 422.786L163.371 433.358H166.604H169.837L169.719 422.786ZM207.35 492.106C198.472 490.817 193.572 486.778 191.588 479.114C191.11 477.267 190.972 474.42 190.972 466.43V456.128H199.76H208.549L208.551 465.616C208.553 475.456 208.842 477.8 210.138 478.494C211.412 479.176 212.931 478.947 213.96 477.917C214.929 476.948 214.94 476.854 214.94 469.655C214.94 463.147 214.854 462.194 214.127 460.693C213.68 459.77 208.922 454.038 203.553 447.957C196.154 439.575 193.475 436.256 192.482 434.24L191.172 431.581L191.04 422.519C190.932 415.153 191.028 412.984 191.554 410.934C193.695 402.578 200.814 398.095 211.944 398.095C223.888 398.095 230.932 403.185 232.549 412.985C232.749 414.194 232.913 418.823 232.914 423.272L232.916 431.361H223.928H214.94V421.955V412.549L213.959 411.569C212.88 410.489 211.908 410.349 210.366 411.051C208.942 411.7 208.553 413.491 208.551 419.404C208.547 427.416 208.173 426.737 219.436 439.145C229.983 450.763 231.006 452.064 231.978 455.096C232.799 457.654 233.221 473.348 232.58 477.465C231.451 484.713 226.968 489.528 219.547 491.461C216.754 492.188 210.276 492.531 207.35 492.106ZM19.1997 445.143V399.803H35.9774H52.7552V405.995V412.186H44.9655H37.1758V422.772V433.358H44.7658H52.3557V439.75V446.141H44.7658H37.1758V468.312V490.483H28.1878H19.1997V445.143ZM246.498 451.534V412.586H240.706H234.914V406.194V399.803H255.486H276.059V406.194V412.586H270.067H264.075V451.534V490.483H255.287H246.498V451.534ZM139.572 384.214C131.346 383.418 122.352 381.261 114.473 378.196C112.057 377.256 105.321 374.068 99.5052 371.112C85.0643 363.771 77.213 360.714 66.9364 358.428C62.9804 357.548 52.985 357.22 49.4135 357.852C41.044 359.335 32.3307 364.389 22.8948 373.236L19.1997 376.7V362.722V348.745L21.2319 346.917C27.4217 341.352 37.7131 336.555 47.1626 334.829C52.8702 333.787 62.4166 333.882 68.3049 335.041C77.2525 336.801 85.5295 340.186 95.2988 346.082C108.932 354.31 120.242 358.787 133.248 361.103C140.039 362.312 154.056 362.426 160.412 361.323C174.074 358.951 186.179 354.251 199.76 346.043C209.409 340.212 216.1 337.366 225.158 335.24C229.495 334.223 230.615 334.121 237.71 334.106C246.391 334.088 249.186 334.505 256.349 336.888C263.205 339.168 269.818 342.884 273.911 346.755L276.059 348.786V362.8V376.813L273.163 373.982C264.479 365.494 256.552 360.562 248.145 358.415C245.06 357.628 243.402 357.459 238.757 357.46C226.197 357.464 214.67 360.736 201.558 368.018C188.185 375.446 179.172 379.159 168.002 381.841C158.767 384.059 147.599 384.991 139.572 384.214ZM138.042 350.799C129.923 349.792 121.686 347.717 114.419 344.85C111.812 343.822 104.467 340.35 98.0951 337.135C83.758 329.901 75.5898 326.833 65.3385 324.832C60.5985 323.907 50.4343 323.905 45.3108 324.828C35.8967 326.524 27.4545 330.564 21.4966 336.224L19.1997 338.406V325.491V312.577L20.498 311.429C26.389 306.223 35.7301 302.08 45.0902 300.524C50.6926 299.592 62.0325 299.881 67.4828 301.094C76.7299 303.152 84.9282 306.6 95.3267 312.803C114.751 324.391 129.292 328.87 147.43 328.851C155.87 328.842 161.111 328.182 169.187 326.11C178.749 323.656 188.87 319.292 198.585 313.433C211.279 305.778 219.689 302.369 230.519 300.486C235.705 299.585 245.068 299.6 250.293 300.518C259.602 302.153 268.889 306.333 274.523 311.423L276.059 312.811V325.566V338.322L273.184 335.847C260.746 325.142 244.488 321.641 225.25 325.524C216.703 327.25 212.274 329.104 194.864 338.246C182.217 344.888 170.251 348.818 157.696 350.453C153.425 351.01 141.438 351.22 138.042 350.799ZM135.645 317.469C124.105 314.637 112.301 309.885 99.3941 302.875C86.4978 295.871 75.2318 291.84 63.8891 290.173C58.8993 289.44 56.1238 289.396 50.8419 289.971C38.5829 291.303 26.2046 295.912 20.498 301.27L19.1997 302.489V289.674V276.859L20.8203 275.395C24.3217 272.231 29.0818 269.743 35.6619 267.636C49.2381 263.289 63.7438 264.022 81.517 269.955C90.6529 273.005 98.0032 276.169 109.38 281.951L118.668 286.671V258.916V231.161L117.37 231.96C114.356 233.813 109.333 236.066 106.165 236.984C89.0452 241.945 70.4433 235.082 60.4789 220.129C59.2024 218.213 58.1557 216.617 58.153 216.582C58.149 216.547 56.8002 216.958 55.1528 217.496C46.1202 220.445 36.3937 220.228 27.2005 216.873C13.6927 211.943 3.78812 200.329 0.774676 185.886C0.13065 182.8 0.13065 174.592 0.774676 171.505C2.04479 165.418 4.63855 159.481 8.02239 154.917C10.2032 151.975 15.0857 147.158 17.5169 145.549L19.0613 144.527L18.5396 142.037C16.2016 130.881 21.9978 119.073 32.8283 112.929C34.6923 111.871 35.1619 111.415 35.0306 110.786C34.9387 110.347 34.4851 108.565 34.0223 106.827C33.0797 103.287 32.9049 97.9869 33.6166 94.5272C34.3439 90.9913 36.9354 86.1053 39.5865 83.2712C43.766 78.8034 48.8413 76.0559 55.2362 74.7994L58.5996 74.1386L57.5987 70.8909C56.703 67.9846 56.5953 66.9292 56.574 60.8521C56.5484 53.5761 56.7972 52.143 59.0356 46.671C62.5038 38.1924 68.9874 31.3181 77.3226 27.2821C83.2896 24.3929 86.2094 23.7706 94.0005 23.7276L100.692 23.6907L102.151 21.4989C104.242 18.3575 111.56 11.1877 115.076 8.83628C120.627 5.12261 125.982 2.78248 132.811 1.08482C137.492 -0.079031 147.123 -0.362104 152.422 0.508406C160.278 1.79899 168.106 5.07339 174.718 9.83401C178.533 12.5811 184.591 18.8036 186.777 22.2225C188.099 24.2883 188.525 24.6843 189.242 24.511C201.606 21.5224 216.609 26.0018 225.198 35.2463C231.237 41.7465 233.661 47.9811 234.007 57.9039C234.195 63.2887 233.753 68.0769 232.702 72.0373C232.52 72.7229 232.919 72.9963 235.517 73.9644C244.2 77.1997 253.392 86.3922 257.013 95.4605C258.594 99.4195 259.003 101.905 258.792 106.279L258.603 110.207L261.439 111.677C267.179 114.653 272.085 120.834 273.892 127.364C274.809 130.68 275.027 138.476 274.315 142.544C273.632 146.446 273.175 145.627 278.375 149.816C284.119 154.444 289.046 161.99 290.71 168.709C291.775 173.012 291.669 181.623 290.493 186.286C287.588 197.799 279.516 207.712 268.669 213.089C262.085 216.353 257.809 217.342 250.094 217.385C245.521 217.41 243.031 217.231 240.573 216.7C238.742 216.304 237.2 216.04 237.148 216.113C232.115 223.104 226.953 227.605 219.933 231.122C212.403 234.895 205.549 236.534 197.164 236.567C190.699 236.593 187.469 235.907 181.285 233.196C179.253 232.305 177.365 231.478 177.09 231.358C176.694 231.185 176.591 236.852 176.591 258.947C176.591 274.24 176.654 286.753 176.731 286.753C176.808 286.753 178.56 285.834 180.626 284.71C201.695 273.252 220.287 266.653 235.713 265.16C250.294 263.748 265.907 267.498 273.649 274.27L275.66 276.029V288.827V301.626L274.116 300.231C265.997 292.897 246.007 288.084 232.117 290.121C220.431 291.834 209.306 295.792 196.264 302.875C185.884 308.513 176.306 312.659 167.203 315.454C162.747 316.823 156.788 318.304 155.719 318.308C155.056 318.311 155.02 315.143 155.02 257.351V196.392L157.277 198.455C163.325 203.983 173.354 207.85 184.315 208.881C203.866 210.719 222.193 201.38 226.527 187.371L227.187 185.238L228.653 187.027C229.459 188.01 231.194 189.534 232.51 190.412C240.656 195.852 251.255 194.89 258.107 188.09C267.374 178.893 264.658 163.066 252.794 157.131C251.301 156.384 249.29 155.655 248.323 155.51L246.567 155.246L247.748 153.389C249.742 150.252 250.611 146.67 250.423 142.365C250.278 139.049 250.098 138.312 248.778 135.641C246.084 130.19 241.332 126.719 234.863 125.478C233.023 125.124 231.459 124.791 231.386 124.736C231.314 124.682 231.536 124.207 231.88 123.682C232.9 122.126 234.083 118.267 234.348 115.636C235.296 106.209 228.526 96.7631 218.27 93.2039C215.114 92.1089 211.25 91.419 208.249 91.4146C207.096 91.413 206.152 91.3374 206.152 91.2468C206.152 91.1561 206.784 90.1225 207.557 88.9498C210.565 84.3879 211.893 79.0899 211.647 72.6365C211.509 69.0055 211.244 67.3728 210.383 64.8469C206.582 53.6861 196.539 46.3061 185.115 46.2784C181.641 46.27 177.07 47.1095 174.461 48.235C173.399 48.693 172.473 49.0678 172.403 49.0678C172.334 49.0678 172.06 48.124 171.796 46.9706C171.01 43.5402 168.718 39.3235 166.064 36.425C161.023 30.9203 154.656 27.9732 146.991 27.5969C141.573 27.3308 137.77 28.1195 132.685 30.5636C126.164 33.6975 121.054 39.7836 119.31 46.4901C118.733 48.7117 118.898 48.6754 114.873 47.4654C111.36 46.4094 104.854 46.3035 101.291 47.2444C87.6006 50.8592 79.0302 64.3528 81.6527 78.1637C82.3474 81.8221 84.24 86.3246 86.1285 88.8116C86.7973 89.6924 87.4552 90.5942 87.5905 90.8158C87.747 91.0722 86.5792 91.2489 84.3771 91.3019C76.7988 91.4845 70.4399 94.1157 65.2953 99.1976C60.2378 104.193 58.4652 108.692 58.8485 115.56C59.0686 119.502 59.9696 122.305 61.9687 125.267C62.6137 126.223 63.1414 127.085 63.1414 127.184C63.1414 127.283 61.4425 127.364 59.3661 127.364C57.2897 127.364 54.6382 127.562 53.4739 127.804C48.4044 128.858 43.6847 132.381 41.8812 136.459C39.3922 142.085 41.372 149.951 46.7614 155.848L48.749 158.023L47.2567 158.264C44.6181 158.691 40.0501 161.188 37.5553 163.568C33.0544 167.861 31.1469 172.051 31.1225 177.697C31.0993 183.099 33.2771 187.751 37.3418 190.982C44.9956 197.066 56.6271 196.643 64.7933 189.985L67.0443 188.149L67.7633 189.814C68.9725 192.614 71.7758 196.611 74.0058 198.713C81.7684 206.032 93.139 210.051 106.084 210.051C119.162 210.051 130.465 206.015 138.342 198.533L140.639 196.351V257.331V318.311L139.74 318.282C139.245 318.266 137.403 317.9 135.645 317.469Z" fill="#E53233"/>
</svg>
